<?xml version="1.0" encoding="utf-8"?>
<!-- Generator: Adobe Illustrator 17.1.0, SVG Export Plug-In . SVG Version: 6.00 Build 0)  -->
<!DOCTYPE svg PUBLIC "-//W3C//DTD SVG 1.1//EN" "http://www.w3.org/Graphics/SVG/1.1/DTD/svg11.dtd">
<svg version="1.1" xmlns="http://www.w3.org/2000/svg" xmlns:xlink="http://www.w3.org/1999/xlink" x="0px" y="0px"
	 viewBox="0 0 40.5 58.8" enable-background="new 0 0 40.5 58.8" xml:space="preserve">
<g id="Background">
</g>
<g id="Object">
	<path fill="#F0493E" d="M40.5,33.8C40.5,24.3,24.6,13,20.3,0C15.9,13,0,22.4,0,33.8c0,5.6-1.1,25.1,20.3,25.1
		C41.6,58.9,40.5,39.4,40.5,33.8z"/>
	<path fill="#D54037" d="M20.3,0C15.9,13,0,22.4,0,33.8c0,5.6-1.1,25.1,20.3,25.1c5.4,0,9.3-1.2,12.2-3.2C15.6,56.4,7.2,35,12.4,27
		C18.4,17.8,20.3,0,20.3,0z"/>
</g>
</svg>
