<?xml version="1.0" encoding="utf-8"?>
<!-- Generator: Adobe Illustrator 17.1.0, SVG Export Plug-In . SVG Version: 6.00 Build 0)  -->
<!DOCTYPE svg PUBLIC "-//W3C//DTD SVG 1.1//EN" "http://www.w3.org/Graphics/SVG/1.1/DTD/svg11.dtd">
<svg version="1.1" xmlns="http://www.w3.org/2000/svg" xmlns:xlink="http://www.w3.org/1999/xlink" x="0px" y="0px"
	 viewBox="0 0 102.1 117.2" enable-background="new 0 0 102.1 117.2" xml:space="preserve">
<g id="Background">
</g>
<g id="Object">
	<g>
		<path fill="#FFFFFF" d="M67.9,0H34.2c-5.8,0-10.5,5-10.5,11.3v83.1c0,6.2,4.7,11.3,10.5,11.3h33.8c5.8,0,10.5-5,10.5-11.3V11.3
			C78.5,5,73.8,0,67.9,0z"/>
		<path fill="#E6E7E8" d="M40.1,0h-6c-5.8,0-10.5,5-10.5,11.3v83.1c0,6.2,4.7,11.3,10.5,11.3h33.8c5.8,0,10.5-5,10.5-11.3
			C40.1,80.8,39.5,18,40.1,0z"/>
		<path fill="#FBD66C" d="M90.5,94H11.6C5.2,94,0,99.2,0,105.6c0,6.4,5.2,11.6,11.6,11.6h78.9c6.4,0,11.6-5.2,11.6-11.6
			C102.1,99.2,96.9,94,90.5,94z"/>
		<path fill="#F8BD42" d="M0,105.6c0,6.4,5.2,11.6,11.6,11.6h40.3c-12.7-6.4-19.5-15.7-23.1-23.2H11.6C5.2,94,0,99.2,0,105.6z"/>
	</g>
</g>
</svg>
